<svg width="14" height="15" viewBox="0 0 14 15" fill="none" xmlns="http://www.w3.org/2000/svg">
<path d="M4.24124 8.44138C4.04584 8.44138 3.88216 8.37385 3.75021 8.23879C3.61826 8.10372 3.55205 7.93677 3.55159 7.73793C3.55113 7.53909 3.61734 7.37214 3.75021 7.23708C3.88308 7.10201 4.04676 7.03448 4.24124 7.03448C4.43573 7.03448 4.59964 7.10201 4.73297 7.23708C4.8663 7.37214 4.93228 7.53909 4.9309 7.73793C4.92952 7.93677 4.86331 8.10396 4.73228 8.23949C4.60124 8.37502 4.43757 8.44232 4.24124 8.44138ZM6.99986 8.44138C6.80446 8.44138 6.64078 8.37385 6.50883 8.23879C6.37688 8.10372 6.31067 7.93677 6.31021 7.73793C6.30975 7.53909 6.37596 7.37214 6.50883 7.23708C6.6417 7.10201 6.80538 7.03448 6.99986 7.03448C7.19435 7.03448 7.35826 7.10201 7.49159 7.23708C7.62492 7.37214 7.6909 7.53909 7.68952 7.73793C7.68814 7.93677 7.62193 8.10396 7.4909 8.23949C7.35986 8.37502 7.19619 8.44232 6.99986 8.44138ZM9.75848 8.44138C9.56308 8.44138 9.3994 8.37385 9.26745 8.23879C9.1355 8.10372 9.06929 7.93677 9.06883 7.73793C9.06837 7.53909 9.13458 7.37214 9.26745 7.23708C9.40032 7.10201 9.564 7.03448 9.75848 7.03448C9.95297 7.03448 10.1169 7.10201 10.2502 7.23708C10.3835 7.37214 10.4495 7.53909 10.4481 7.73793C10.4468 7.93677 10.3806 8.10396 10.2495 8.23949C10.1185 8.37502 9.95481 8.44232 9.75848 8.44138ZM2.17228 14.069C1.79297 14.069 1.46837 13.9313 1.19849 13.656C0.928601 13.3808 0.793429 13.0494 0.792969 12.6621V2.81379C0.792969 2.4269 0.928141 2.09581 1.19849 1.82052C1.46883 1.54524 1.79343 1.40737 2.17228 1.4069H2.86193V0H4.24124V1.4069H9.75848V0H11.1378V1.4069H11.8274C12.2068 1.4069 12.5316 1.54477 12.8019 1.82052C13.0723 2.09628 13.2072 2.42737 13.2068 2.81379V12.6621C13.2068 13.049 13.0718 13.3803 12.8019 13.656C12.532 13.9318 12.2072 14.0694 11.8274 14.069H2.17228ZM2.17228 12.6621H11.8274V5.62759H2.17228V12.6621Z" fill="white"/>
</svg>
