<svg width="40" height="42" viewBox="0 0 40 42" fill="none" xmlns="http://www.w3.org/2000/svg">
<g filter="url(#filter0_d_277_99)">
<rect x="6" y="2.06885" width="28" height="29.2727" rx="14" fill="white" fill-opacity="0.3" shape-rendering="crispEdges"/>
<path fill-rule="evenodd" clip-rule="evenodd" d="M24.1271 18.5649C24.1271 18.5649 25.6544 20.9033 25.6544 22.4557C25.6544 23.5454 24.7694 24.4312 23.6789 24.4312C22.5884 24.4312 21.7033 23.5454 21.7033 22.4557C21.7033 20.9033 23.2306 18.5649 23.2306 18.5649C23.2797 18.491 23.3463 18.4303 23.4245 18.3884C23.5027 18.3464 23.5901 18.3245 23.6789 18.3245C23.7676 18.3245 23.855 18.3464 23.9332 18.3884C24.0114 18.4303 24.078 18.491 24.1271 18.5649ZM25.0833 15.9012C26.4554 16.2022 27.1616 17.1662 27.5344 17.8731L27.5552 17.9177C27.6226 18.0808 27.6487 18.258 27.6314 18.4336C27.614 18.6092 27.5537 18.7778 27.4557 18.9246C27.3577 19.0714 27.2251 19.1917 27.0695 19.2751C26.914 19.3585 26.7403 19.4022 26.5639 19.4026H24.9245L25.2708 17.6734C25.2866 17.5922 25.2952 17.5096 25.2952 17.427C25.2952 16.8983 25.2212 16.3861 25.0833 15.9012ZM14.2192 16.3437C13.8636 15.9838 13.4678 15.5319 13.1783 15.06C12.8392 14.5061 12.6517 13.9192 12.7293 13.3962C12.8888 12.3237 13.4369 11.879 14.2113 11.5859C14.6158 11.4321 15.0964 11.3287 15.615 11.1656C16.1675 10.9918 16.2415 10.6534 16.388 10.3567C16.5712 9.98461 16.8032 9.63691 17.3528 9.39195C18.0072 9.09957 18.5776 9.20876 19.1078 9.4056C19.4426 9.52916 19.7443 9.72168 20.0575 9.70516C20.2974 9.69151 20.3987 9.57442 20.5352 9.47169C20.8111 9.26408 21.1387 9.04497 21.8384 8.9875C22.5165 8.93218 22.8376 9.1398 23.0898 9.40416C23.1767 9.49611 23.2536 9.60028 23.3347 9.70803C23.4403 9.8474 23.5603 10.0019 23.8369 10.0873C24.2263 10.2066 24.6235 10.2382 24.9877 10.3208C25.7205 10.4875 26.3534 10.8021 26.7047 11.8704C26.9374 12.578 26.7197 13.3725 26.2147 14.0406C25.8446 14.5221 25.3662 14.9095 24.8182 15.1713C24.3811 14.186 23.6674 13.3487 22.7639 12.7608C21.8604 12.173 20.8057 11.8599 19.7278 11.8596C18.6446 11.8599 17.5851 12.1758 16.6787 12.7689C15.7723 13.3619 15.0584 14.2062 14.6244 15.1986C14.6122 15.2273 14.6007 15.2568 14.5906 15.2862L14.2192 16.3437Z" fill="white"/>
<path fill-rule="evenodd" clip-rule="evenodd" d="M21.7803 24.3662C21.6942 24.413 21.597 24.4354 21.4991 24.4309C21.4013 24.4265 21.3065 24.3954 21.225 24.3411L19.3687 23.1033L17.5124 24.3411C17.4086 24.4102 17.2842 24.4412 17.1602 24.4289C17.0362 24.4165 16.9202 24.3617 16.8321 24.2736L15.6705 23.1112L13.1439 24.3741C13.048 24.4225 12.9398 24.441 12.8333 24.4273C12.7267 24.4136 12.6267 24.3683 12.5461 24.2973C12.4655 24.2263 12.408 24.1328 12.381 24.0288C12.354 23.9249 12.3588 23.8152 12.3946 23.714L15.2682 15.5244C15.6413 14.6506 16.2629 13.9056 17.0557 13.3818C17.8485 12.8581 18.7777 12.5787 19.7279 12.5784C21.0137 12.5789 22.2468 13.09 23.156 13.9993C24.0653 14.9085 24.5763 16.1416 24.5769 17.4274C24.5769 17.4629 24.5733 17.4983 24.5661 17.533L24.4921 17.9051C24.3565 17.7901 24.198 17.7052 24.027 17.656C23.8561 17.6068 23.6767 17.5944 23.5006 17.6196C23.3246 17.6449 23.1559 17.7072 23.0057 17.8025C22.8555 17.8978 22.7273 18.0239 22.6294 18.1724C22.6294 18.1724 20.985 20.7521 20.985 22.4561C20.985 23.2025 21.2889 23.8785 21.7803 24.3662ZM21.3442 15.6315C21.2013 15.6315 21.0643 15.6882 20.9632 15.7893C20.8622 15.8903 20.8054 16.0274 20.8054 16.1703C20.8054 16.3132 20.8622 16.4502 20.9632 16.5512C21.0643 16.6523 21.2013 16.709 21.3442 16.709C21.4871 16.709 21.6241 16.6523 21.7252 16.5512C21.8262 16.4502 21.883 16.3132 21.883 16.1703C21.883 16.0274 21.8262 15.8903 21.7252 15.7893C21.6241 15.6882 21.4871 15.6315 21.3442 15.6315Z" fill="white"/>
</g>
<defs>
<filter id="filter0_d_277_99" x="0" y="0.0688477" width="40" height="41.2727" filterUnits="userSpaceOnUse" color-interpolation-filters="sRGB">
<feFlood flood-opacity="0" result="BackgroundImageFix"/>
<feColorMatrix in="SourceAlpha" type="matrix" values="0 0 0 0 0 0 0 0 0 0 0 0 0 0 0 0 0 0 127 0" result="hardAlpha"/>
<feOffset dy="4"/>
<feGaussianBlur stdDeviation="3"/>
<feComposite in2="hardAlpha" operator="out"/>
<feColorMatrix type="matrix" values="0 0 0 0 0 0 0 0 0 0 0 0 0 0 0 0 0 0 0.06 0"/>
<feBlend mode="normal" in2="BackgroundImageFix" result="effect1_dropShadow_277_99"/>
<feBlend mode="normal" in="SourceGraphic" in2="effect1_dropShadow_277_99" result="shape"/>
</filter>
</defs>
</svg>
