<svg width="22" height="23" viewBox="0 0 22 23" fill="none" xmlns="http://www.w3.org/2000/svg">
<path fill-rule="evenodd" clip-rule="evenodd" d="M21.9993 11.1632V18.9992C21.9993 20.7438 20.5774 22.1657 18.8328 22.1657H13.9408C13.5722 22.1657 13.2742 21.8668 13.2742 21.4991V15.9683C13.2742 15.4183 12.8245 14.9685 12.2745 14.9685H9.7248C9.17477 14.9685 8.72502 15.4183 8.72502 15.9683V21.4991C8.72502 21.8677 8.42612 22.1657 8.05849 22.1657H3.16644C1.42183 22.1657 0 20.7438 0 18.9992V11.1632C0 10.3038 0.320848 9.53031 0.928174 8.92393L8.75932 1.08986C9.99306 -0.143885 12.0032 -0.143885 13.2377 1.08986L21.0718 8.92393C21.6782 9.53031 22 10.3038 22 11.1632H21.9993Z" fill="#57B674"/>
</svg>
