<svg width="25" height="25" viewBox="0 0 25 25" fill="none" xmlns="http://www.w3.org/2000/svg">
<path fill-rule="evenodd" clip-rule="evenodd" d="M17.6933 22.3838C17.8654 22.3838 18.0304 22.3154 18.1521 22.1938C18.2738 22.0721 18.3421 21.9071 18.3421 21.735C18.3421 21.5629 18.2738 21.3979 18.1521 21.2762C18.0304 21.1545 17.8654 21.0862 17.6933 21.0862C17.5212 21.0862 17.3562 21.1545 17.2345 21.2762C17.1129 21.3979 17.0445 21.5629 17.0445 21.735C17.0445 21.9071 17.1129 22.0721 17.2345 22.1938C17.3562 22.3154 17.5212 22.3838 17.6933 22.3838ZM17.6933 24.3302C18.3816 24.3302 19.0417 24.0568 19.5284 23.5701C20.0151 23.0834 20.2886 22.4233 20.2886 21.735C20.2886 21.0467 20.0151 20.3866 19.5284 19.8999C19.0417 19.4132 18.3816 19.1397 17.6933 19.1397C17.005 19.1397 16.3449 19.4132 15.8582 19.8999C15.3715 20.3866 15.0981 21.0467 15.0981 21.735C15.0981 22.4233 15.3715 23.0834 15.8582 23.5701C16.3449 24.0568 17.005 24.3302 17.6933 24.3302ZM9.90763 22.3838C10.0797 22.3838 10.2447 22.3154 10.3664 22.1938C10.4881 22.0721 10.5564 21.9071 10.5564 21.735C10.5564 21.5629 10.4881 21.3979 10.3664 21.2762C10.2447 21.1545 10.0797 21.0862 9.90763 21.0862C9.73556 21.0862 9.57053 21.1545 9.44885 21.2762C9.32718 21.3979 9.25882 21.5629 9.25882 21.735C9.25882 21.9071 9.32718 22.0721 9.44885 22.1938C9.57053 22.3154 9.73556 22.3838 9.90763 22.3838ZM9.90763 24.3302C10.5959 24.3302 11.256 24.0568 11.7427 23.5701C12.2294 23.0834 12.5029 22.4233 12.5029 21.735C12.5029 21.0467 12.2294 20.3866 11.7427 19.8999C11.256 19.4132 10.5959 19.1397 9.90763 19.1397C9.21933 19.1397 8.55923 19.4132 8.07253 19.8999C7.58583 20.3866 7.3124 21.0467 7.3124 21.735C7.3124 22.4233 7.58583 23.0834 8.07253 23.5701C8.55923 24.0568 9.21933 24.3302 9.90763 24.3302ZM0.663422 0.433326C0.806598 0.21859 1.02921 0.0695189 1.28229 0.0189031C1.53537 -0.0317128 1.79819 0.0202713 2.01294 0.163422L3.52856 1.17362C4.0128 1.49634 4.35467 1.99265 4.4836 2.56012L7.15344 14.3087C7.23493 14.6673 7.43586 14.9876 7.72326 15.217C8.01067 15.4464 8.3675 15.5713 8.73524 15.5713H18.8657C19.2335 15.5713 19.5903 15.4464 19.8777 15.217C20.1651 14.9876 20.366 14.6673 20.4475 14.3087L22.512 5.22542C22.566 4.98792 22.5658 4.74131 22.5114 4.5039C22.457 4.26649 22.3499 4.04437 22.198 3.85403C22.046 3.66369 21.8531 3.51 21.6337 3.40439C21.4142 3.29878 21.1738 3.24395 20.9302 3.24396H10.8808C10.6227 3.24396 10.3752 3.14143 10.1927 2.95891C10.0102 2.7764 9.90763 2.52886 9.90763 2.27075C9.90763 2.01264 10.0102 1.7651 10.1927 1.58258C10.3752 1.40007 10.6227 1.29754 10.8808 1.29754H20.9302C23.2205 1.29754 24.9171 3.42368 24.4098 5.65688L22.3453 14.7402C22.1659 15.5289 21.7238 16.2332 21.0916 16.7378C20.4594 17.2423 19.6746 17.5171 18.8657 17.5171H8.73524C7.92639 17.5171 7.14154 17.2423 6.50934 16.7378C5.87714 16.2332 5.4351 15.5289 5.25568 14.7402L2.58519 2.99093C2.56677 2.90996 2.51801 2.83913 2.44894 2.79304L0.933326 1.78285C0.71859 1.63967 0.569519 1.41706 0.518903 1.16398C0.468287 0.9109 0.520271 0.64808 0.663422 0.433326Z" fill="#828282"/>
<path fill-rule="evenodd" clip-rule="evenodd" d="M9.90164 9.44778C10.084 9.26544 10.3313 9.16295 10.5892 9.16283C10.8471 9.16271 11.0946 9.26496 11.2771 9.44713L12.4255 10.5936L16.3248 6.69424C16.4147 6.60133 16.5221 6.52724 16.6408 6.47629C16.7596 6.42534 16.8873 6.39856 17.0165 6.39749C17.1458 6.39643 17.2739 6.42112 17.3935 6.47011C17.5131 6.5191 17.6217 6.59141 17.713 6.68283C17.8044 6.77425 17.8766 6.88295 17.9254 7.00257C17.9743 7.1222 17.9989 7.25036 17.9977 7.37958C17.9965 7.50881 17.9696 7.6365 17.9186 7.75521C17.8675 7.87392 17.7933 7.98127 17.7003 8.07101L13.1132 12.6581C12.9308 12.8403 12.6834 12.9427 12.4255 12.9427C12.1676 12.9427 11.9202 12.8403 11.7378 12.6581L9.90164 10.8239C9.71919 10.6414 9.6167 10.3939 9.6167 10.1358C9.6167 9.87778 9.71919 9.63028 9.90164 9.44778Z" fill="#828282"/>
</svg>
