<svg width="21" height="23" viewBox="0 0 21 23" fill="none" xmlns="http://www.w3.org/2000/svg">
<path d="M9.66406 2.00044V0.287354H10.4997V1.13693H11.327L10.4997 1.12579V1.96144H10.5304L9.66406 2.00044Z" fill="#828282"/>
<path d="M18.0487 18.4377H2.95125C1.60028 18.4377 0.5 17.3374 0.5 15.9864C0.5 15.5436 0.619777 15.1062 0.848189 14.7246L2.25487 12.3792V8.02548C2.25487 6.97813 2.49164 5.95585 2.95961 4.98371C3.39694 4.07285 4.01811 3.25113 4.80362 2.53804C6.36351 1.123 8.42758 0.301281 10.4694 0.287354H10.5334C12.578 0.298496 14.6504 1.11743 16.2159 2.53804C17.0014 3.25113 17.6253 4.07285 18.0655 4.98371C18.5362 5.95585 18.773 6.97813 18.773 8.02548V12.382L20.1602 14.733C20.383 15.109 20.5 15.5408 20.5 15.9781V15.9837C20.5 17.3374 19.3997 18.4377 18.0487 18.4377ZM10.5084 1.96144H10.4944C6.99582 1.97815 3.92618 4.8138 3.92618 8.02548V12.8416L2.28273 15.5825C2.21031 15.7051 2.17131 15.8416 2.17131 15.9837C2.17131 16.4154 2.52228 16.7636 2.95125 16.7636H18.0487C18.4805 16.7636 18.8287 16.4126 18.8287 15.9837V15.9781C18.8287 15.8388 18.7925 15.7023 18.7201 15.5825L17.1017 12.8388V8.02548C17.1017 4.8138 14.0265 1.97815 10.5223 1.95866L10.5084 1.96144Z" fill="#828282"/>
<path d="M11.3359 2.00116L10.4696 1.95938H10.5002V1.13765H9.67292L10.5002 1.12373V0.302002H11.3359V2.00116ZM10.4529 22.0429C9.09632 22.0429 7.80105 21.2629 7.07403 20.0039L8.51972 19.1682C8.94311 19.9008 9.70078 20.3716 10.4501 20.3716C11.3442 20.3716 12.0935 19.9398 12.4501 19.2156L13.9487 19.9565C13.6311 20.6 13.1353 21.132 12.5141 21.4969C11.9069 21.8534 11.1938 22.0429 10.4529 22.0429ZM7.77041 6.75044L6.29688 5.95936C6.66456 5.27412 7.23002 4.68917 7.92919 4.26856C8.63114 3.84795 9.41944 3.61954 10.2105 3.61396H10.2829L10.1994 5.28248H10.2662H10.2272C9.22445 5.29362 8.23559 5.88136 7.77041 6.75044Z" fill="#828282"/>
</svg>
