<svg width="24" height="23" viewBox="0 0 24 23" fill="none" xmlns="http://www.w3.org/2000/svg">
<path d="M17.5456 22.0427H3.59108C3.22353 22.0428 2.86016 21.9648 2.52512 21.8136C2.19008 21.6625 1.89103 21.4418 1.64786 21.1662C1.40469 20.8906 1.22297 20.5664 1.11477 20.2152C1.00657 19.8639 0.974371 19.4937 1.02031 19.129L2.57427 6.69734C2.65389 6.07158 2.95884 5.49629 3.43204 5.07916C3.90523 4.66203 4.51423 4.43165 5.14503 4.43115H15.9917C16.6225 4.43167 17.2316 4.66212 17.7048 5.07935C18.178 5.49659 18.4829 6.07201 18.5624 6.69786L19.2508 12.2248C19.2592 12.2923 19.2542 12.3608 19.2362 12.4264C19.2181 12.492 19.1873 12.5533 19.1455 12.607C19.1037 12.6607 19.0517 12.7056 18.9926 12.7392C18.9334 12.7728 18.8682 12.7944 18.8007 12.8028C18.7332 12.8112 18.6647 12.8063 18.5991 12.7882C18.5335 12.7701 18.4721 12.7393 18.4184 12.6975C18.3647 12.6557 18.3198 12.6037 18.2862 12.5446C18.2526 12.4854 18.231 12.4202 18.2226 12.3527L17.5342 6.82632C17.4868 6.45075 17.3039 6.10542 17.0198 5.85516C16.7358 5.60489 16.3702 5.46691 15.9917 5.46712H5.14503C4.76648 5.46691 4.40087 5.60489 4.11685 5.85516C3.83282 6.10542 3.64992 6.45075 3.60247 6.82632L2.04852 19.258C2.0213 19.4767 2.04086 19.6988 2.10591 19.9094C2.17096 20.1201 2.28002 20.3145 2.42585 20.4798C2.57169 20.6452 2.75098 20.7776 2.95186 20.8685C3.15274 20.9593 3.37062 21.0064 3.59108 21.0067H17.5456C17.6119 20.9942 17.6801 20.9949 17.7462 21.0088C17.8122 21.0227 17.8749 21.0495 17.9306 21.0876C17.9862 21.1258 18.0338 21.1746 18.0706 21.2312C18.1074 21.2878 18.1327 21.3511 18.1449 21.4175C18.1696 21.5532 18.14 21.6933 18.0625 21.8075C17.9851 21.9217 17.8658 22.0009 17.7305 22.0282C17.6695 22.0385 17.6076 22.0434 17.5456 22.0427Z" fill="#828282" stroke="#828282" stroke-width="0.5"/>
<path d="M14.1941 9.09311C14.0567 9.09311 13.925 9.03854 13.8278 8.9414C13.7307 8.84425 13.6761 8.7125 13.6761 8.57512V4.43124C13.6761 3.60697 13.3487 2.81646 12.7658 2.23361C12.183 1.65076 11.3925 1.32332 10.5682 1.32332C9.74393 1.32332 8.95342 1.65076 8.37057 2.23361C7.78773 2.81646 7.46029 3.60697 7.46029 4.43124V8.57512C7.46029 8.7125 7.40571 8.84425 7.30857 8.9414C7.21143 9.03854 7.07968 9.09311 6.9423 9.09311C6.80492 9.09311 6.67317 9.03854 6.57603 8.9414C6.47889 8.84425 6.42432 8.7125 6.42432 8.57512V4.43124C6.42432 3.33221 6.8609 2.2782 7.63803 1.50107C8.41516 0.72394 9.46918 0.287354 10.5682 0.287354C11.6672 0.287354 12.7212 0.72394 13.4984 1.50107C14.2755 2.2782 14.7121 3.33221 14.7121 4.43124V8.57512C14.7121 8.7125 14.6575 8.84425 14.5604 8.9414C14.4632 9.03854 14.3315 9.09311 14.1941 9.09311ZM17.82 22.0428C16.7955 22.0428 15.7941 21.739 14.9422 21.1698C14.0904 20.6006 13.4265 19.7916 13.0344 18.8451C12.6424 17.8986 12.5398 16.8571 12.7397 15.8524C12.9395 14.8476 13.4329 13.9246 14.1573 13.2002C14.8817 12.4758 15.8047 11.9824 16.8095 11.7826C17.8143 11.5827 18.8558 11.6853 19.8022 12.0773C20.7487 12.4694 21.5577 13.1333 22.1269 13.9851C22.6961 14.8369 22.9999 15.8384 22.9999 16.8629C22.9984 18.2362 22.4521 19.5529 21.481 20.5239C20.51 21.495 19.1933 22.0412 17.82 22.0428ZM17.82 12.719C17.0004 12.719 16.1992 12.962 15.5178 13.4174C14.8363 13.8727 14.3052 14.5199 13.9916 15.2771C13.6779 16.0343 13.5958 16.8675 13.7557 17.6713C13.9156 18.4752 14.3103 19.2135 14.8898 19.7931C15.4694 20.3726 16.2077 20.7673 17.0116 20.9272C17.8154 21.087 18.6486 21.005 19.4058 20.6913C20.163 20.3777 20.8102 19.8466 21.2655 19.1651C21.7209 18.4837 21.9639 17.6825 21.9639 16.8629C21.9627 15.7642 21.5257 14.7109 20.7488 13.9341C19.9719 13.1572 18.9186 12.7202 17.82 12.719Z" fill="#828282" stroke="#828282" stroke-width="0.5"/>
<path d="M17.8202 18.9349C17.6829 18.9349 17.5511 18.8803 17.454 18.7832C17.3568 18.686 17.3022 18.5543 17.3022 18.4169V15.309C17.3022 15.1716 17.3568 15.0399 17.454 14.9427C17.5511 14.8456 17.6829 14.791 17.8202 14.791C17.9576 14.791 18.0894 14.8456 18.1865 14.9427C18.2836 15.0399 18.3382 15.1716 18.3382 15.309V18.4169C18.3382 18.5543 18.2836 18.686 18.1865 18.7832C18.0894 18.8803 17.9576 18.9349 17.8202 18.9349Z" fill="#828282" stroke="#828282" stroke-width="0.5"/>
<path d="M19.3739 17.3809H16.266C16.1287 17.3809 15.9969 17.3264 15.8998 17.2292C15.8026 17.1321 15.748 17.0003 15.748 16.863C15.748 16.7256 15.8026 16.5938 15.8998 16.4967C15.9969 16.3995 16.1287 16.345 16.266 16.345H19.3739C19.5113 16.345 19.6431 16.3995 19.7402 16.4967C19.8374 16.5938 19.8919 16.7256 19.8919 16.863C19.8919 17.0003 19.8374 17.1321 19.7402 17.2292C19.6431 17.3264 19.5113 17.3809 19.3739 17.3809Z" fill="#828282" stroke="#828282" stroke-width="0.5"/>
</svg>
