<svg width="18" height="20" viewBox="0 0 18 20" fill="none" xmlns="http://www.w3.org/2000/svg">
<path d="M16.6002 10.6542C16.4701 10.6338 16.3373 10.6396 16.2095 10.6712C16.0818 10.7028 15.9615 10.7595 15.856 10.8381C15.7504 10.9167 15.6615 11.0156 15.5946 11.1289C15.5276 11.2422 15.484 11.3678 15.4662 11.4982C15.2642 12.8706 14.622 14.1403 13.6362 15.1162C12.4164 16.3336 10.7635 17.0173 9.04016 17.0173C7.31683 17.0173 5.66391 16.3336 4.44416 15.1162C3.227 13.8963 2.54344 12.2434 2.54344 10.5202C2.54344 8.79696 3.227 7.14408 4.44416 5.9242C5.39416 4.97169 6.61962 4.34199 7.94716 4.1242C8.55693 4.01342 9.17988 3.99488 9.79516 4.0692C10.6651 4.17387 11.5043 4.45566 12.2612 4.8972L10.9592 5.1202C10.8281 5.14064 10.7025 5.18692 10.5896 5.25636C10.4766 5.3258 10.3786 5.41701 10.3012 5.52468C10.2238 5.63236 10.1686 5.75435 10.1388 5.88355C10.109 6.01275 10.1052 6.14659 10.1276 6.27728C10.1501 6.40797 10.1982 6.53289 10.2694 6.64479C10.3405 6.75668 10.4332 6.85331 10.542 6.92905C10.6509 7.00479 10.7737 7.05814 10.9033 7.08597C11.0329 7.11381 11.1668 7.11559 11.2972 7.0912L14.7872 6.4952C15.0483 6.44975 15.2807 6.30269 15.4337 6.08622C15.5866 5.86975 15.6476 5.6015 15.6032 5.3402L15.0062 1.8502C14.9881 1.71717 14.9434 1.58914 14.8748 1.47375C14.8062 1.35836 14.715 1.25796 14.6068 1.17855C14.4985 1.09914 14.3754 1.04234 14.2447 1.01154C14.114 0.980736 13.9785 0.976562 13.8462 0.999265C13.7138 1.02197 13.5875 1.07108 13.4745 1.14368C13.3616 1.21628 13.2644 1.31088 13.1888 1.42183C13.1132 1.53278 13.0608 1.65782 13.0345 1.78949C13.0083 1.92115 13.0089 2.05675 13.0362 2.1882L13.1922 3.1072C12.2143 2.55789 11.1365 2.2094 10.0222 2.0822C9.21371 1.98471 8.39518 2.00966 7.59416 2.1562C5.86394 2.44384 4.26762 3.26719 3.03016 4.5102C-0.28284 7.8242 -0.28284 13.2152 3.03016 16.5302C3.81883 17.3199 4.75579 17.946 5.78718 18.3724C6.81858 18.7989 7.92408 19.0173 9.04016 19.0152C10.1562 19.0173 11.2617 18.7989 12.2931 18.3724C13.3245 17.946 14.2615 17.3199 15.0502 16.5302C16.3405 15.2508 17.1806 13.5871 17.4442 11.7892C17.4828 11.5269 17.4157 11.26 17.2576 11.0472C17.0996 10.8343 16.8634 10.693 16.6012 10.6542H16.6002Z" fill="#828282"/>
</svg>
