<svg width="25" height="26" viewBox="0 0 25 26" fill="none" xmlns="http://www.w3.org/2000/svg">
<mask id="mask0_284_314" style="mask-type:luminance" maskUnits="userSpaceOnUse" x="0" y="0" width="25" height="26">
<path d="M0 0.5H25V25.5H0V0.5Z" fill="white"/>
</mask>
<g mask="url(#mask0_284_314)">
<path d="M17.6564 11.1562L11.7606 17.052C11.6642 17.1486 11.5497 17.2252 11.4237 17.2775C11.2977 17.3298 11.1626 17.3567 11.0262 17.3567C10.8898 17.3567 10.7547 17.3298 10.6287 17.2775C10.5027 17.2252 10.3882 17.1486 10.2918 17.052L7.34391 14.1041C7.24747 14.0077 7.17097 13.8932 7.11878 13.7672C7.06659 13.6412 7.03972 13.5061 7.03972 13.3697C7.03972 13.2333 7.06659 13.0983 7.11878 12.9723C7.17097 12.8463 7.24747 12.7318 7.34391 12.6354C7.44035 12.5389 7.55484 12.4624 7.68085 12.4102C7.80685 12.358 7.9419 12.3312 8.07829 12.3312C8.21467 12.3312 8.34972 12.358 8.47573 12.4102C8.60173 12.4624 8.71622 12.5389 8.81266 12.6354L11.021 14.8437L16.1772 9.68744C16.2736 9.59088 16.3881 9.51427 16.5141 9.46199C16.6401 9.40972 16.7752 9.38282 16.9116 9.38282C17.048 9.38282 17.1831 9.40972 17.3091 9.46199C17.4352 9.51427 17.5496 9.59088 17.646 9.68744C18.0627 10.0937 18.0627 10.7499 17.6564 11.1562ZM4.16683 12.9999C4.16683 10.5729 5.22933 8.39578 6.896 6.87494L8.48975 8.4687C8.56318 8.54068 8.65628 8.58931 8.75731 8.60847C8.85833 8.62763 8.96277 8.61645 9.05746 8.57635C9.15215 8.53624 9.23284 8.46901 9.28938 8.38312C9.34592 8.29723 9.37577 8.19652 9.37516 8.0937V3.62495C9.37516 3.33328 9.146 3.10411 8.85433 3.10411H4.38558C3.91683 3.10411 3.68766 3.66661 4.021 3.98953L5.41683 5.39578C3.37516 7.29161 2.0835 9.98953 2.0835 12.9999C2.0835 17.9479 5.54183 22.0937 10.1668 23.1562C10.8231 23.302 11.4585 22.8124 11.4585 22.1354C11.4585 21.6458 11.1147 21.2291 10.6356 21.1145C6.93766 20.2708 4.16683 16.9583 4.16683 12.9999ZM22.9168 12.9999C22.9168 8.05203 19.4585 3.9062 14.8335 2.8437C14.1772 2.69786 13.5418 3.18745 13.5418 3.86453C13.5418 4.35411 13.8856 4.77078 14.3647 4.88536C18.0627 5.72911 20.8335 9.04161 20.8335 12.9999C20.8335 15.427 19.771 17.6041 18.1043 19.1249L16.5106 17.5312C16.4371 17.4592 16.3441 17.4106 16.243 17.3914C16.142 17.3723 16.0376 17.3834 15.9429 17.4235C15.8482 17.4636 15.7675 17.5309 15.7109 17.6168C15.6544 17.7027 15.6246 17.8034 15.6252 17.9062V22.3749C15.6252 22.6666 15.8543 22.8958 16.146 22.8958H20.6147C21.0835 22.8958 21.3127 22.3333 20.9793 22.0104L19.5835 20.6041C21.6252 18.7083 22.9168 16.0104 22.9168 12.9999Z" fill="white"/>
</g>
</svg>
